<svg width="28" height="18" viewBox="0 0 28 18" xmlns="http://www.w3.org/2000/svg"><title>Group</title><g transform="translate(.4 .2)" fill="none" fill-rule="evenodd"><path stroke="#FFF" fill="#F0F0F0" d="M.5.5h26.2v16.6H.5z"/><rect fill="#FFF" x="6.4" y="1.6" width="14.4" height="14.4" rx="4.5"/><path d="M18.427 11.393a5.246 5.246 0 0 1-1.479 1.623 6.546 6.546 0 0 1-1.956 1.024 7.106 7.106 0 0 1-2.927.327V8.804l-.213.072-2.252.697v-.897l2.465-.768V7.41c-.12.048-.282.105-.484.171a3.876 3.876 0 0 1-.386.113l-1.3.414-.106.028c-.071.018-.135.034-.189.043v-.897l2.465-.754V4.863l.001-1.663h1.3v2.916l3.943-1.237v.895l-3.944 1.238v.484l2.136-.654 1.808-.584v.854c0 .038-.01.056-.032.056l-3.798 1.18a1.52 1.52 0 0 0-.115.058V13.229c.997-.104 1.88-.432 2.647-.982.844-.597 1.408-1.342 1.693-2.233.121-.408.181-.816.181-1.224H19.2c0 .92-.258 1.788-.773 2.603" stroke="#424242" stroke-width=".1" fill="#424242"/></g></svg>